<?xml version="1.0" encoding="utf-8"?>
<!-- Generator: Adobe Illustrator 19.1.0, SVG Export Plug-In . SVG Version: 6.00 Build 0)  -->
<svg version="1.1" id="Capa_1" xmlns="http://www.w3.org/2000/svg" xmlns:xlink="http://www.w3.org/1999/xlink" x="0px" y="0px"
	 viewBox="0 0 254 153.3" style="enable-background:new 0 0 254 153.3;" xml:space="preserve">
<style type="text/css">
	.st0{fill:#00FF00;}
	.st1{fill:none;stroke:#00FF00;stroke-width:3;stroke-linecap:round;stroke-linejoin:round;stroke-miterlimit:10;}
	.st2{fill:#00FF00;stroke:#00FF00;stroke-width:3;stroke-linecap:round;stroke-linejoin:round;stroke-miterlimit:10;}
</style>
<g id="XMLID_325_">
	<rect id="XMLID_328_" x="28.9" y="11.8" class="st0" width="196.1" height="120.1"/>
	<path id="XMLID_326_" class="st1" d="M233.4,139.6H20.6v-129c0-4.5,3.7-8.2,8.2-8.2h196.4c4.5,0,8.2,3.7,8.2,8.2V139.6z"/>
	<path id="XMLID_327_" class="st1" d="M251.3,147.2l-4.1,1.6c-4.1,1.6-8.5,2.4-13,2.4H20c-4.2,0-8.3-0.7-12.3-2.2l-5-1.8v-7.7h248.7
		V147.2z"/>
	<path id="XMLID_397_" class="st0" d="M231.6,144h-15.8c-0.5,0-0.8-0.4-0.8-0.8v0c0-0.5,0.4-0.8,0.8-0.8h15.8c0.5,0,0.8,0.4,0.8,0.8
		v0C232.5,143.6,232.1,144,231.6,144z"/>
	<path id="XMLID_398_" class="st2" d="M7.7,149c3.9,1.4,8.1,2.2,12.3,2.2h214.3c4.4,0,8.8-0.8,13-2.4l4.1-1.6H2.6L7.7,149z"/>
</g>
</svg>
